<svg width="43" height="43" viewBox="0 0 43 43" fill="none" xmlns="http://www.w3.org/2000/svg">
<rect x="0.25" y="0.25" width="42.5" height="42.5" fill="white" stroke="#E0E0E0" stroke-width="0.5"/>
<path d="M32.7625 15.8125C32.7625 16.075 32.7625 16.3375 32.7625 16.5625C32.7625 24.325 26.8375 33.2875 16.0375 33.2875C12.7 33.2875 9.625 32.3125 7 30.6625C7.45 30.7 7.9375 30.7375 8.3875 30.7375C11.125 30.7375 13.675 29.8 15.7 28.225C13.1125 28.1875 10.9375 26.4625 10.225 24.1375C10.6 24.2125 10.9375 24.25 11.35 24.25C11.875 24.25 12.4 24.175 12.8875 24.025C10.1875 23.5 8.1625 21.1375 8.1625 18.2875C8.1625 18.25 8.1625 18.25 8.1625 18.2125C8.95 18.6625 9.85 18.925 10.825 18.9625C9.25 17.9125 8.2 16.1125 8.2 14.05C8.2 12.9625 8.5 11.95 8.9875 11.0875C11.875 14.65 16.225 16.975 21.1 17.2375C20.9875 16.825 20.95 16.3375 20.95 15.8875C20.95 12.625 23.575 10 26.8375 10C28.525 10 30.0625 10.7125 31.1125 11.8375C32.4625 11.575 33.7 11.0875 34.8625 10.4125C34.4125 11.8 33.475 12.925 32.275 13.675C33.475 13.525 34.6 13.225 35.65 12.7375C34.9 13.9375 33.925 14.9875 32.7625 15.8125Z" fill="#1DA1F2"/>
</svg>
