<svg width="43" height="43" viewBox="0 0 43 43" fill="none" xmlns="http://www.w3.org/2000/svg">
<rect x="0.25" y="0.25" width="42.5" height="42.5" fill="white" stroke="#E0E0E0" stroke-width="0.5"/>
<path d="M21.5001 14.4467C23.6596 14.4467 25.1163 15.3794 25.9468 16.1589L29.1924 12.99C27.199 11.1372 24.6051 10 21.5001 10C17.0024 10 13.1179 12.5811 11.2268 16.3378L14.9451 19.2256C15.8779 16.4528 18.459 14.4467 21.5001 14.4467Z" fill="#EA4335"/>
<path d="M32.54 21.7555C32.54 20.81 32.4633 20.12 32.2972 19.4044H21.5V23.6722H27.8378C27.71 24.7328 27.02 26.33 25.4867 27.4033L29.1156 30.2144C31.2878 28.2083 32.54 25.2566 32.54 21.7555Z" fill="#4285F4"/>
<path d="M14.9578 23.7744C14.715 23.0589 14.5744 22.2922 14.5744 21.5C14.5744 20.7078 14.715 19.9411 14.945 19.2255L11.2267 16.3378C10.4472 17.8967 10 19.6472 10 21.5C10 23.3528 10.4472 25.1033 11.2267 26.6622L14.9578 23.7744Z" fill="#FBBC05"/>
<path d="M21.5001 33C24.6051 33 27.2117 31.9777 29.1156 30.2144L25.4867 27.4033C24.5156 28.0805 23.2123 28.5533 21.5001 28.5533C18.4589 28.5533 15.8778 26.5472 14.9578 23.7744L11.2395 26.6622C13.1306 30.4189 17.0023 33 21.5001 33Z" fill="#34A853"/>
</svg>
