<svg width="43" height="43" viewBox="0 0 43 43" fill="none" xmlns="http://www.w3.org/2000/svg">
<rect x="0.25" y="0.25" width="42.5" height="42.5" fill="white" stroke="#E0E0E0" stroke-width="0.5"/>
<path d="M33.3679 34.639C31.7929 34.6015 30.2554 34.6015 28.6804 34.639C28.3429 34.639 28.2679 34.564 28.2679 34.2265C28.2679 31.4515 28.2679 28.639 28.2679 25.864C28.2679 25.2265 28.2304 24.589 28.0429 23.989C27.4804 22.039 25.2304 21.3265 23.6179 22.639C22.7554 23.314 22.4179 24.2515 22.4179 25.3765C22.4179 28.0015 22.4179 30.6265 22.4179 33.2515C22.4179 33.589 22.3804 33.9265 22.4179 34.3015C22.4554 34.6015 22.3054 34.6765 22.0429 34.639C20.4304 34.639 18.8554 34.639 17.2429 34.639C16.9429 34.639 16.8679 34.564 16.8679 34.264C16.9054 31.9015 16.9054 29.539 16.9054 27.139C16.9054 24.214 16.9054 21.289 16.8679 18.4015C16.8679 18.064 16.9429 17.989 17.2429 17.989C18.8554 17.989 20.4304 17.989 22.0429 17.989C22.3429 17.989 22.4179 18.064 22.4179 18.364C22.4179 18.964 22.4179 19.564 22.4179 20.2765C22.5304 20.164 22.5679 20.1265 22.6054 20.089C24.0679 17.9515 26.1304 17.3515 28.5679 17.7265C31.3804 18.1765 33.1804 20.1265 33.6304 23.1265C33.7429 23.839 33.7804 24.5515 33.7804 25.264C33.7804 28.264 33.7804 31.2265 33.7804 34.2265C33.7804 34.5265 33.7054 34.639 33.3679 34.639Z" fill="#0077B5"/>
<path d="M13.868 26.314C13.868 28.939 13.868 31.564 13.868 34.189C13.868 34.5265 13.793 34.639 13.4555 34.639C11.8805 34.6015 10.3055 34.639 8.73047 34.639C8.43047 34.639 8.35547 34.564 8.35547 34.264C8.35547 28.9765 8.35547 23.6515 8.35547 18.364C8.35547 18.1015 8.43047 17.989 8.73047 17.989C10.343 17.989 11.9555 17.989 13.568 17.989C13.9055 17.989 13.943 18.1015 13.943 18.4015C13.868 21.0265 13.868 23.6515 13.868 26.314Z" fill="#0077B5"/>
<path d="M14.1304 13.639C13.7554 15.139 12.2179 16.0015 10.4554 15.7015C8.58041 15.4015 7.53041 13.564 8.20541 11.764C8.65541 10.639 9.74291 9.96399 11.1304 10.0015C13.2304 9.96399 14.6179 11.6515 14.1304 13.639Z" fill="#0077B5"/>
</svg>
